<svg width="46" height="46" viewBox="0 0 46 46" fill="none" xmlns="http://www.w3.org/2000/svg">
<circle cx="23" cy="23" r="21.5" fill="#E5E5E5" stroke="url(#paint0_linear_30_163)" stroke-width="3"/>
<g clip-path="url(#clip0_30_163)">
<path fill-rule="evenodd" clip-rule="evenodd" d="M23 3C34.046 3 43 12.1799 43 23.5059C43 32.5639 37.276 40.2479 29.334 42.9619C28.32 43.1639 27.96 42.5235 27.96 41.9775C27.96 41.3015 27.984 39.0936 27.984 36.3496C27.984 34.4376 27.344 33.1897 26.626 32.5537C31.08 32.0457 35.76 30.3115 35.76 22.4355C35.76 20.1955 34.984 18.3676 33.7 16.9316C33.908 16.4136 34.594 14.3279 33.504 11.5039C33.504 11.5039 31.828 10.9544 28.01 13.6064C26.412 13.1524 24.7 12.924 23 12.916C21.3 12.924 19.59 13.1524 17.994 13.6064C14.172 10.9544 12.492 11.5039 12.492 11.5039C11.406 14.3279 12.092 16.4136 12.298 16.9316C11.02 18.3676 10.238 20.1955 10.238 22.4355C10.238 30.2915 14.908 32.0523 19.35 32.5703C18.778 33.0823 18.26 33.9855 18.08 35.3115C16.94 35.8355 14.044 36.7424 12.26 33.6084C12.26 33.6084 11.202 31.6381 9.194 31.4941C9.194 31.4941 7.244 31.4682 9.058 32.7402C9.058 32.7402 10.368 33.3702 11.278 35.7402C11.278 35.7402 12.452 39.4002 18.016 38.1602C18.026 39.8742 18.044 41.4895 18.044 41.9775C18.044 42.5195 17.676 43.1539 16.678 42.9639C8.72999 40.2539 3 32.5659 3 23.5059C3 12.1799 11.956 3 23 3Z" fill="black"/>
</g>
<defs>
<linearGradient id="paint0_linear_30_163" x1="23" y1="3" x2="23" y2="43" gradientUnits="userSpaceOnUse">
<stop stop-color="#F5EDDA"/>
<stop offset="1" stop-color="white" stop-opacity="0.34"/>
</linearGradient>
<clipPath id="clip0_30_163">
<rect width="40" height="40" fill="white" transform="translate(3 3)"/>
</clipPath>
</defs>
</svg>
