<svg width="46" height="46" viewBox="0 0 46 46" fill="none" xmlns="http://www.w3.org/2000/svg">
<circle cx="23" cy="23" r="21.5" fill="black" stroke="url(#paint0_linear_30_160)" stroke-width="3"/>
<g clip-path="url(#clip0_30_160)">
<path fill-rule="evenodd" clip-rule="evenodd" d="M17.2175 9.17182C14.9385 9.27465 12.9631 9.83185 11.3681 11.4202C9.76747 13.0168 9.2172 15 9.11411 17.2553C9.05003 18.663 8.67532 29.2976 9.7619 32.0866C10.4946 33.9681 11.9378 35.4147 13.8365 36.1498C14.7225 36.4945 15.7339 36.7277 17.2175 36.7958C29.6227 37.3572 34.2211 37.0516 36.1602 32.0866C36.5043 31.2028 36.7412 30.1923 36.8066 28.7123C37.3736 16.2754 36.7147 13.5796 34.5527 11.4202C32.8378 9.70956 30.8207 8.54511 17.2175 9.17182ZM17.3317 34.2946C15.9735 34.2334 15.2366 34.0071 14.7448 33.8167C13.5078 33.3359 12.5786 32.4106 12.1008 31.1808C11.2733 29.0617 11.5478 18.9967 11.6216 17.3681C11.6941 15.7728 12.0172 14.3149 13.1428 13.1893C14.5359 11.7997 16.3357 11.1187 28.5904 11.6717C30.1896 11.744 31.6509 12.0665 32.7793 13.1893C34.1724 14.5789 34.8633 16.3926 34.3005 28.6002C34.2392 29.9551 34.0122 30.6903 33.8213 31.1808C32.5606 34.4116 29.6602 34.8601 17.3317 34.2946ZM28.7255 15.5655C28.7255 16.4854 29.4736 17.2334 30.3972 17.2334C31.3208 17.2334 32.0703 16.4854 32.0703 15.5655C32.0703 14.6456 31.3208 13.8982 30.3972 13.8982C29.4736 13.8982 28.7255 14.6456 28.7255 15.5655ZM15.8077 22.9831C15.8077 26.9241 19.0104 30.1192 22.9611 30.1192C26.9118 30.1192 30.1144 26.9241 30.1144 22.9831C30.1144 19.0422 26.9118 15.8492 22.9611 15.8492C19.0104 15.8492 15.8077 19.0422 15.8077 22.9831ZM18.318 22.9831C18.318 20.4263 20.3965 18.3518 22.9611 18.3518C25.5257 18.3518 27.6041 20.4263 27.6041 22.9831C27.6041 25.5414 25.5257 27.6165 22.9611 27.6165C20.3965 27.6165 18.318 25.5414 18.318 22.9831Z" fill="#E5E5E5"/>
</g>
<defs>
<linearGradient id="paint0_linear_30_160" x1="23" y1="3" x2="23" y2="43" gradientUnits="userSpaceOnUse">
<stop stop-color="#F5EDDA"/>
<stop offset="1" stop-color="white" stop-opacity="0.34"/>
</linearGradient>
<clipPath id="clip0_30_160">
<rect width="28" height="28" fill="white" transform="translate(9 9)"/>
</clipPath>
</defs>
</svg>
